HIERARCHY
ROOT Hips
{
	OFFSET 0.000000 0.000000 0.000000
	CHANNELS 6 Xposition Yposition Zposition Xrotation Yrotation Zrotation
	JOINT Chest
	{
		OFFSET 0.000000 0.009282 11.569106
		CHANNELS 3 Xrotation Yrotation Zrotation
		JOINT Chest2
		{
			OFFSET 0.000000 -0.016863 9.269641
			CHANNELS 3 Xrotation Yrotation Zrotation
			JOINT Chest3
			{
				OFFSET 0.000000 0.000000 8.374491
				CHANNELS 3 Xrotation Yrotation Zrotation
				JOINT Chest4
				{
					OFFSET 0.000000 0.000000 8.374493
					CHANNELS 3 Xrotation Yrotation Zrotation
					JOINT Neck
					{
						OFFSET 0.000000 -0.000001 12.152554
						CHANNELS 3 Xrotation Yrotation Zrotation
						JOINT Head
						{
							OFFSET 0.000000 -0.040100 7.802319
							CHANNELS 3 Xrotation Yrotation Zrotation
							End Site
							{
								OFFSET 0.000000 -0.020946 14.853096
							}
						}
					}
					JOINT RightCollar
					{
						OFFSET -2.894404 0.000000 6.791374
						CHANNELS 3 Xrotation Yrotation Zrotation
						JOINT RightShoulder
						{
							OFFSET -13.574684 0.000000 0.000000
							CHANNELS 3 Xrotation Yrotation Zrotation
							JOINT RightElbow
							{
								OFFSET -23.923903 0.000000 0.000000
								CHANNELS 3 Xrotation Yrotation Zrotation
								JOINT RightWrist
								{
									OFFSET -19.846718 -0.012765 0.000000
									CHANNELS 3 Xrotation Yrotation Zrotation
									End Site
									{
										OFFSET -14.973145 0.000000 0.000000
									}
								}
							}
						}
					}
					JOINT LeftCollar
					{
						OFFSET 2.894404 0.000000 6.791374
						CHANNELS 3 Xrotation Yrotation Zrotation
						JOINT LeftShoulder
						{
							OFFSET 13.574684 0.000000 0.000000
							CHANNELS 3 Xrotation Yrotation Zrotation
							JOINT LeftElbow
							{
								OFFSET 23.923903 0.000000 0.000000
								CHANNELS 3 Xrotation Yrotation Zrotation
								JOINT LeftWrist
								{
									OFFSET 19.846718 -0.012765 0.000000
									CHANNELS 3 Xrotation Yrotation Zrotation
									End Site
									{
										OFFSET 14.973145 0.000000 0.000000
									}
								}
							}
						}
					}
				}
			}
		}
	}
	JOINT RightHip
	{
		OFFSET -9.469263 -0.004642 0.045487
		CHANNELS 3 Xrotation Yrotation Zrotation
		JOINT RightKnee
		{
			OFFSET 0.000000 -0.002666 -40.478676
			CHANNELS 3 Xrotation Yrotation Zrotation
			JOINT RightAnkle
			{
				OFFSET 0.000000 -0.049110 -35.224068
				CHANNELS 3 Xrotation Yrotation Zrotation
				JOINT RightToe
				{
					OFFSET 0.000000 -12.539530 -6.151390
					CHANNELS 3 Xrotation Yrotation Zrotation
					End Site
					{
						OFFSET 0.000000 -5.044995 -1.291870
					}
				}
			}
		}
	}
	JOINT LeftHip
	{
		OFFSET 9.469263 -0.004642 0.045487
		CHANNELS 3 Xrotation Yrotation Zrotation
		JOINT LeftKnee
		{
			OFFSET 0.000000 -0.002666 -40.478676
			CHANNELS 3 Xrotation Yrotation Zrotation
			JOINT LeftAnkle
			{
				OFFSET 0.000000 -0.049110 -35.224068
				CHANNELS 3 Xrotation Yrotation Zrotation
				JOINT LeftToe
				{
					OFFSET 0.000000 -12.539530 -6.151390
					CHANNELS 3 Xrotation Yrotation Zrotation
					End Site
					{
						OFFSET 0.000000 -5.044995 -1.291870
					}
				}
			}
		}
	}
}
MOTION
Frames: 7
Frame Time: 0.016667
-11.284332 -6.103336 82.993675 2.970582 6.436520 -110.504640 4.868717 0.492498 5.565501 2.167172 0.162728 2.455856 2.167172 0.162728 2.455853 1.626064 0.113341 1.842494 15.376793 -3.885941 -6.876329 -7.728198 -4.526775 -13.953892 -1.759719 -8.356760 -11.505588 -17.436940 -78.456723 -9.497750 33.546276 0.809933 3.413602 -0.583807 7.452128 15.373844 2.419184 9.254566 -15.499521 0.801409 75.763832 -8.574075 12.598912 -0.518869 -1.564007 21.028131 -16.217724 -14.857169 9.899804 0.206075 -2.684239 2.334743 -0.649717 -1.702404 -4.964000 -0.317528 2.141336 -0.018567 -0.025960 -0.000538 10.454168 -0.526754 1.432473 0.691474 0.143350 -2.845965 -4.355120 -0.166668 3.382555 0.053984 0.002210 0.002966 
-11.259405 -6.108374 82.995346 2.964217 6.434456 -110.513697 4.871409 0.496720 5.558862 2.168941 0.164543 2.453030 2.168941 0.164543 2.453035 1.627396 0.114705 1.840385 15.373595 -3.878009 -6.875295 -7.733201 -4.512451 -13.949112 -1.762247 -8.354971 -11.504299 -17.399272 -78.455036 -9.480063 33.532103 0.809223 3.428096 -0.624757 7.454502 15.421888 2.422841 9.259615 -15.497754 0.829817 75.757808 -8.568859 12.529602 -0.523786 -1.568682 20.996155 -16.313909 -14.913838 9.857860 0.207242 -2.652940 2.369345 -0.647692 -1.710971 -4.957640 -0.306886 2.118675 -0.017455 -0.024681 0.000845 10.415026 -0.521841 1.426743 0.731180 0.144613 -2.856773 -4.359305 -0.173140 3.382610 0.050201 0.005122 0.002084 
-11.235826 -6.110666 82.996704 2.955209 6.428382 -110.516477 4.872978 0.502127 5.551233 2.169573 0.166512 2.450039 2.169573 0.166512 2.450045 1.627878 0.116191 1.838147 15.384832 -3.873435 -6.876606 -7.711768 -4.504835 -13.949361 -1.770964 -8.362249 -11.502418 -17.410837 -78.442291 -9.504436 33.519731 0.801213 3.431987 -0.656081 7.458090 15.454128 2.409078 9.262791 -15.488190 0.761902 75.747433 -8.463933 12.508271 -0.524228 -1.565698 20.976739 -16.412994 -14.992579 9.830421 0.209633 -2.639790 2.369248 -0.643400 -1.718177 -4.938713 -0.303408 2.139461 -0.014281 -0.021494 0.001479 10.374043 -0.521471 1.404153 0.764603 0.150929 -2.863500 -4.358765 -0.181849 3.392524 0.046024 0.008828 0.001409 
-11.216448 -6.113337 82.997795 2.945069 6.416173 -110.516948 4.873057 0.507431 5.544194 2.169257 0.167963 2.447613 2.169257 0.167963 2.447617 1.627645 0.117287 1.836335 15.410242 -3.872492 -6.877774 -7.664508 -4.505330 -13.950221 -1.792248 -8.369120 -11.511212 -17.420186 -78.425250 -9.530094 33.501542 0.789083 3.424230 -0.680279 7.459729 15.480000 2.383932 9.266424 -15.486867 0.648475 75.730091 -8.310369 12.504138 -0.521054 -1.552150 20.947005 -16.499201 -15.073457 9.816045 0.208178 -2.637536 2.334792 -0.638909 -1.717667 -4.906010 -0.301712 2.146728 -0.010823 -0.015908 0.000991 10.336873 -0.515028 1.365822 0.782727 0.145871 -2.862638 -4.352437 -0.187844 3.409666 0.041785 0.012977 0.000477 
-11.200368 -6.116900 82.998772 2.933470 6.396450 -110.518260 4.869379 0.506221 5.536593 2.167409 0.166611 2.445128 2.167409 0.166611 2.445127 1.626253 0.116291 1.834461 15.446215 -3.870988 -6.874419 -7.597791 -4.507544 -13.942275 -1.831962 -8.365000 -11.517764 -17.489246 -78.415189 -9.619853 33.479224 0.789277 3.385020 -0.688405 7.484159 15.507596 2.363384 9.273086 -15.484964 0.525607 75.730754 -8.157855 12.492349 -0.523151 -1.537481 20.924230 -16.562860 -15.130867 9.807815 0.203481 -2.635770 2.276056 -0.630093 -1.725718 -4.863734 -0.304550 2.129097 -0.007360 -0.010577 0.001842 10.299660 -0.505603 1.327697 0.788778 0.134323 -2.863063 -4.342061 -0.192914 3.467073 0.038445 0.017825 -0.001703 
-11.186807 -6.120165 82.999207 2.918094 6.365986 -110.522692 4.858317 0.493188 5.523695 2.162088 0.160566 2.440552 2.162090 0.160566 2.440552 1.622239 0.111794 1.831011 15.493381 -3.859961 -6.861812 -7.509535 -4.497008 -13.913522 -1.851491 -8.339176 -11.499867 -17.575735 -78.414472 -9.722427 33.454137 0.810569 3.329121 -0.700771 7.520292 15.550048 2.299597 9.318917 -15.451934 0.411167 75.731662 -7.960604 12.481433 -0.524744 -1.525286 20.931750 -16.624257 -15.186244 9.797380 0.200305 -2.629435 2.201279 -0.621817 -1.758502 -4.817611 -0.311244 2.141060 -0.002109 -0.005835 0.004348 10.259331 -0.493050 1.294809 0.782331 0.119683 -2.863760 -4.326790 -0.197479 3.514228 0.035020 0.022266 -0.004207 
-11.173638 -6.123248 82.999542 2.896553 6.329036 -110.524981 4.850318 0.486535 5.513366 2.158535 0.157993 2.436981 2.158535 0.157993 2.436976 1.619561 0.109891 1.828317 15.546387 -3.851814 -6.845328 -7.410980 -4.493684 -13.878621 -1.895812 -8.328027 -11.477430 -17.624046 -78.417641 -9.797055 33.407633 0.839576 3.257013 -0.715674 7.548514 15.599560 2.239690 9.338107 -15.424842 0.300933 75.737632 -7.804572 12.470071 -0.520165 -1.509817 20.938042 -16.674491 -15.230813 9.782267 0.202122 -2.631441 2.119969 -0.613943 -1.789321 -4.768949 -0.322932 2.180231 0.002677 0.000566 0.005714 10.211987 -0.482693 1.262247 0.772777 0.115899 -2.867576 -4.305718 -0.204833 3.540769 0.028955 0.024010 -0.005123 
